<?xml version="1.0" encoding="utf-8"?>
<!-- Generator: Adobe Illustrator 16.0.0, SVG Export Plug-In . SVG Version: 6.00 Build 0)  -->
<!DOCTYPE svg PUBLIC "-//W3C//DTD SVG 1.1//EN" "http://www.w3.org/Graphics/SVG/1.1/DTD/svg11.dtd">
<svg version="1.1" id="Layer_1" xmlns="http://www.w3.org/2000/svg" xmlns:xlink="http://www.w3.org/1999/xlink" x="0px" y="0px"
	 width="512.648px" height="408.665px" viewBox="0 0 512.648 408.665" enable-background="new 0 0 512.648 408.665"
	 xml:space="preserve">
<g>
	<path fill="#FFFFFF" d="M394.595,249.55L288.568,27.413c-11.512-24.098-36.102-26.465-53.773-16.637
		c-16.094,8.942-26.461,27.989-15.988,49.93l106.035,222.137c10.98,23.027,33.914,26.203,51.355,17.879
		C393.634,292.401,405.583,272.562,394.595,249.55"/>
	<path fill="#FFFFFF" d="M189.587,103.19c-13.762,0.532-24.5,12.129-23.969,25.887c0.531,13.77,12.129,24.5,25.899,23.965
		c13.757-0.531,24.492-12.117,23.957-25.891C214.942,113.386,203.345,102.659,189.587,103.19"/>
	<path fill="#FFFFFF" d="M156.432,181.194c-12.606,0.489-22.43,11.114-21.946,23.707c0.492,12.602,11.106,22.438,23.715,21.95
		c12.602-0.488,22.426-11.109,21.942-23.71C179.653,190.538,169.037,180.706,156.432,181.194"/>
	<path fill="#FFFFFF" d="M123.373,261.214c-9.566,0.359-17.008,8.418-16.633,17.965c0.371,9.547,8.406,16.996,17.965,16.625
		c9.543-0.371,16.992-8.414,16.629-17.961C140.966,268.296,132.912,260.839,123.373,261.214"/>
	<path fill="#EFEFEF" d="M312.611,77.823c0,0,37.867,79.32-41.852,91.75c-26.641,4.156-54.199,0.863-56.844,26.453
		c-2.934,28.36,41.18,42.016,83.332,36.161c41.875-5.816,81.945-14.883,97.344,17.367L312.611,77.823"/>
	<path fill="#FFFFFF" d="M4.514,350.409c-1.133,0-1.7-1.176-1.7-3.531s1.004-3.695,3.016-4.016
		c2.813-0.438,9.445-0.652,19.902-0.652h9.618c1.777,0,3.043,0.332,3.793,1s1.125,1.707,1.125,3.117
		c0,2.188-0.672,3.285-2.016,3.285c-0.504,0-1.457-0.195-2.867-0.586c-1.41-0.398-2.805-0.598-4.188-0.598
		c-3.066,0-4.879,1.156-5.433,3.464c-0.465,1.938-0.696,7.661-0.696,17.168l-0.101,6.786v3.453c0,1.363,0.086,2.391,0.258,3.082
		c0.171,0.691,0.437,1.535,0.8,2.531c0.352,0.992,0.528,1.772,0.528,2.352c0,1.156-0.489,2.043-1.465,2.668
		c-0.981,0.621-2.348,0.934-4.106,0.934h-0.863c-1.269,0-2.398-0.32-3.387-0.957c-0.992-0.629-1.488-1.383-1.488-2.262
		s0.137-1.699,0.406-2.465l0.282-0.684l0.316-0.699c0.203-0.48,0.449-1.23,0.742-2.25c0.285-1.012,0.426-2.879,0.426-5.602
		l0.035-0.969c0.024-0.645,0.035-1.289,0.035-1.934l0.078-1.98l0.102-7.82c0-6.555-0.195-10.531-0.586-11.934
		c-0.512-1.824-1.953-2.734-4.332-2.734c-1.387,0-2.996,0.301-4.824,0.91C6.083,350.101,4.947,350.409,4.514,350.409L4.514,350.409z
		 M39.186,375.081v-1.551c0-2.102,0.437-4.309,1.316-6.617c1.687-4.5,4.551-7.555,8.586-9.168c2.074-0.855,4.281-1.281,6.613-1.281
		h0.754c3.231,0,5.899,0.98,8,2.945c1.199,1.125,2.102,2.48,2.711,4.063c0.613,1.582,0.922,3.008,0.922,4.273
		c0,2.789-0.879,4.613-2.633,5.469c-1.199,0.578-3.941,1.121-8.223,1.633c-4.277,0.5-6.625,0.813-7.043,0.934
		c-2.003,0.5-3.003,1.402-3.003,2.699c0,2.234,1.027,4.102,3.082,5.602c1.5,1.109,3.644,1.664,6.433,1.664
		c1.059,0,2.777-0.336,5.153-1.012c2.378-0.668,3.683-1,3.917-1c1.2,0,1.797,0.543,1.797,1.629c0,1.359-1.285,2.703-3.855,4.027
		c-2.574,1.328-5.223,1.992-7.945,1.992H54.24c-4.613,0-8.316-1.555-11.105-4.668c-1.246-1.387-2.211-3.148-2.903-5.278
		C39.533,379.3,39.186,377.183,39.186,375.081L39.186,375.081z M46.869,369.409v0.586c0,0.813,0.738,1.215,2.219,1.215h0.797
		l0.203-0.031l2.598-0.18l1.734-0.137l1.168-0.137c0.211-0.027,0.496-0.066,0.855-0.109c0.352-0.047,0.602-0.07,0.743-0.07
		c1.566,0,2.675-0.238,3.32-0.719c0.644-0.488,0.965-1.043,0.965-1.664v-1.453c0-1.664-0.61-3.035-1.832-4.117
		c-1.223-1.086-2.563-1.629-4.016-1.629h-0.902c-2.09,0-3.926,0.879-5.5,2.641C47.653,365.378,46.869,367.311,46.869,369.409
		L46.869,369.409z M74.938,374.913v-0.801c0-2.723,0.403-5.188,1.215-7.402c1.543-4.242,4.367-7.277,8.469-9.102
		c1.965-0.855,4.379-1.281,7.234-1.281c2.868,0,5.215,0.57,7.043,1.711c1.84,1.141,2.758,2.531,2.758,4.172
		c0,1.777-0.902,2.668-2.699,2.668c-0.535,0-1.309-0.301-2.32-0.902c-1.02-0.598-1.598-0.938-1.731-1.012
		c-1.613-0.758-3.242-1.137-4.883-1.137c-2.234,0-4.082,1.043-5.535,3.129c-1.457,2.094-2.183,5.07-2.183,8.934
		s0.859,6.785,2.578,8.773c1.715,1.979,3.953,2.969,6.703,2.969c1.469,0,3.344-0.324,5.613-0.977
		c2.274-0.66,3.574-0.992,3.906-0.992c0.922,0,1.383,0.508,1.383,1.52c0,1.367-1.313,2.723-3.938,4.074
		c-2.617,1.348-5.301,2.023-8.043,2.023h-0.754c-2.223,0-4.278-0.414-6.168-1.246c-3.711-1.637-6.227-4.371-7.547-8.203
		C75.307,379.663,74.938,377.358,74.938,374.913L74.938,374.913z M109.958,387.433v-0.934c0-0.367,0.117-1,0.348-1.902l0.519-1.898
		c0.414-1.965,0.617-5.98,0.617-12.051V357.53l0.18-7.707l0.035-1.078c0.024-0.711,0.035-1.391,0.035-2.035s-0.047-1.234-0.136-1.77
		l-0.18-0.73c-0.156-0.711-0.234-1.141-0.234-1.281c0-1.082,0.644-1.621,1.933-1.621h0.899c2.355,0,3.832,0.992,4.433,2.973
		c0.278,0.875,0.461,2.785,0.551,5.723c0.09,2.949,0.223,5.164,0.395,6.652c0.171,1.484,0.664,2.227,1.472,2.227
		c0.301,0,0.731-0.09,1.285-0.27l0.754-0.316c2.399-1.059,4.547-1.586,6.446-1.586c4.191,0,7.121,1.73,8.785,5.188
		c1.156,2.398,1.734,7.105,1.734,14.117c0,2.566,0.25,4.738,0.754,6.523c0.508,1.785,0.762,2.922,0.762,3.41
		c0,2.609-1.453,3.914-4.364,3.914c-1.312,0-2.273-0.23-2.878-0.695c-0.618-0.457-0.922-1.242-0.922-2.352l0.031-0.766l0.066-0.789
		v-1.844l-0.301-8.438c0-4.73-0.511-7.934-1.531-9.605c-1.011-1.676-2.707-2.512-5.086-2.512c-1.265,0-2.507,0.395-3.722,1.184
		c-1.207,0.777-2.157,1.957-2.848,3.531c-0.695,1.565-1.047,5.773-1.047,12.621c0,0.953,0.078,2.133,0.227,3.535
		c0.148,1.41,0.227,2.137,0.227,2.18c0,1.27-0.398,2.301-1.195,3.094c-0.793,0.797-1.977,1.195-3.543,1.195h-0.934
		C111.149,390.202,109.958,389.28,109.958,387.433L109.958,387.433z M149.932,359.96v-0.695c0-1.336,1.382-2.004,4.152-2.004h1.246
		c1.68,0,2.707,0.656,3.082,1.969c0.09,0.344,0.137,2.367,0.137,6.063v7.855l0.066,2.281l0.137,2.668
		c0,2.746,0.566,5.074,1.699,6.984c0.465,0.789,0.695,1.66,0.695,2.609c0,0.961-0.542,1.723-1.628,2.285
		c-1.082,0.57-2.422,0.855-4.02,0.855h-1.766c-0.964,0-1.796-0.277-2.484-0.832c-0.691-0.555-1.035-1.164-1.035-1.824
		c0-0.652,0.195-1.602,0.586-2.844c0.387-1.246,0.582-2.355,0.582-3.332l0.07-0.867l0.067-1.797v-1.418l0.043-0.934v-11.238
		c-0.098-1.254-0.293-2.305-0.594-3.152l-0.305-0.664C150.173,360.729,149.932,360.073,149.932,359.96L149.932,359.96z
		 M151.146,347.226l-0.066-0.695v-0.172l0.133-1.113c0-0.523,0.301-1.148,0.902-1.867c0.598-0.711,1.543-1.066,2.832-1.066h1.148
		c0.992,0,1.84,0.297,2.554,0.898c0.719,0.602,1.078,1.476,1.078,2.633v0.867c0,0.945-0.312,1.793-0.945,2.543
		c-0.621,0.75-1.414,1.125-2.383,1.125l-0.687,0.098h-1.149c-0.277-0.066-0.621-0.098-1.035-0.098c-0.41,0-0.902-0.285-1.472-0.855
		c-0.563-0.563-0.844-1.191-0.844-1.879C151.169,347.456,151.146,347.315,151.146,347.226L151.146,347.226z M167.854,375.081v-1.551
		c0-2.102,0.437-4.309,1.316-6.617c1.687-4.5,4.547-7.555,8.582-9.168c2.078-0.855,4.281-1.281,6.617-1.281h0.75
		c3.235,0,5.902,0.98,8,2.945c1.199,1.125,2.109,2.48,2.723,4.063c0.609,1.582,0.91,3.008,0.91,4.273
		c0,2.789-0.875,4.613-2.633,5.469c-1.199,0.578-3.937,1.121-8.211,1.633c-4.281,0.5-6.629,0.813-7.043,0.934
		c-2.008,0.5-3.015,1.402-3.015,2.699c0,2.234,1.027,4.102,3.082,5.602c1.5,1.109,3.648,1.664,6.437,1.664
		c1.059,0,2.774-0.336,5.152-1.012c2.379-0.668,3.684-1,3.915-1c1.199,0,1.8,0.543,1.8,1.629c0,1.359-1.285,2.703-3.859,4.027
		c-2.57,1.328-5.219,1.992-7.941,1.992h-1.52c-4.621,0-8.324-1.555-11.113-4.668c-1.246-1.387-2.215-3.148-2.903-5.278
		C168.201,379.3,167.854,377.183,167.854,375.081L167.854,375.081z M175.537,369.409v0.586c0,0.813,0.738,1.215,2.215,1.215h0.801
		l0.199-0.031l2.602-0.18l1.73-0.137l1.184-0.137c0.199-0.027,0.48-0.066,0.843-0.109c0.36-0.047,0.606-0.07,0.743-0.07
		c1.566,0,2.671-0.238,3.316-0.719c0.644-0.488,0.969-1.043,0.969-1.664v-1.453c0-1.664-0.614-3.035-1.832-4.117
		c-1.223-1.086-2.559-1.629-4.008-1.629h-0.899c-2.101,0-3.933,0.879-5.5,2.641C176.322,365.378,175.537,367.311,175.537,369.409
		L175.537,369.409z M224.72,388.526c-0.719-1.008-1.078-2.125-1.078-3.355c0-1.234,0.421-2.469,1.269-3.699
		c0.84-1.238,1.453-2.348,1.832-3.332c0.375-0.973,2.063-5.844,5.055-14.613c2.984-8.766,4.988-14.234,6.015-16.402
		c1.028-2.176,1.93-3.555,2.704-4.141c0.769-0.582,1.722-0.875,2.855-0.875c1.125,0,2.148,0.398,3.07,1.202
		c0.926,0.81,1.918,2.356,2.985,4.634c0.02,0.078,3.621,10.227,10.797,30.457c0.391,1.109,0.953,2.262,1.688,3.465
		c0.742,1.199,1.113,2.238,1.113,3.113v0.688c0,1.32-0.555,2.508-1.664,3.566c-0.598,0.577-1.703,0.867-3.305,0.867
		c-1.598,0-2.734-0.43-3.41-1.285c-0.066-0.09-0.512-1.656-1.328-4.699c-0.816-3.047-1.738-5.148-2.766-6.313
		c-1.028-1.172-3.032-1.754-6.008-1.754c-5.672,0-9.047,0.488-10.125,1.473c-1.074,0.98-2.106,3.051-3.094,6.211
		c-0.367,1.152-0.625,2.262-0.765,3.316c-0.137,1.066-0.309,1.75-0.52,2.047c-0.41,0.625-1.227,0.938-2.441,0.938
		C226.393,390.034,225.432,389.53,224.72,388.526L224.72,388.526z M235.927,370.132v0.215c0,0.555,1.188,0.832,3.566,0.832h2.317
		l0.312-0.047l1.137,0.047h0.597c3.504,0,5.254-0.34,5.254-1.016v-0.199c0-0.234-0.144-0.91-0.429-2.028
		c-0.289-1.116-0.461-1.772-0.504-1.968c-0.047-0.203-0.102-0.402-0.168-0.594c-0.071-0.195-0.41-1.602-1.024-4.219
		c-0.609-2.621-1.398-5.059-2.375-7.324c-0.968-2.258-1.519-3.387-1.652-3.387c-0.145,0-0.551,0.828-1.215,2.484
		C237.865,362.62,235.927,368.354,235.927,370.132L235.927,370.132z M269.361,374.913v-0.801c0-2.723,0.406-5.188,1.215-7.402
		c1.543-4.242,4.367-7.277,8.473-9.102c1.965-0.855,4.375-1.281,7.23-1.281c2.867,0,5.215,0.57,7.043,1.711
		c1.84,1.141,2.758,2.531,2.758,4.172c0,1.777-0.898,2.668-2.699,2.668c-0.535,0-1.305-0.301-2.32-0.902
		c-1.02-0.598-1.598-0.938-1.73-1.012c-1.621-0.758-3.246-1.137-4.883-1.137c-2.234,0-4.078,1.043-5.535,3.129
		c-1.453,2.094-2.184,5.07-2.184,8.934s0.859,6.785,2.578,8.773c1.719,1.979,3.949,2.969,6.691,2.969
		c1.48,0,3.355-0.324,5.625-0.977c2.273-0.66,3.57-0.992,3.895-0.992c0.922,0,1.383,0.508,1.383,1.52
		c0,1.367-1.309,2.723-3.926,4.074c-2.617,1.348-5.297,2.023-8.043,2.023h-0.766c-2.211,0-4.266-0.414-6.152-1.246
		c-3.715-1.637-6.23-4.371-7.551-8.203C269.728,379.663,269.361,377.358,269.361,374.913L269.361,374.913z M302.681,381.999
		c0-5.813,3.684-9.434,11.051-10.867c4.77-0.946,7.234-1.449,7.402-1.52c1.133-0.578,1.699-1.617,1.699-3.125
		c0-1.516-0.48-2.789-1.441-3.816c-0.961-1.028-2.266-1.539-3.914-1.539c-1.652,0-3.594,0.563-5.828,1.688
		c-2.234,1.116-3.77,1.676-4.602,1.676c-1.5,0-2.25-1.027-2.25-3.082c0-1.289,1.18-2.512,3.543-3.668s5.055-1.734,8.078-1.734h1.73
		c2.266,0,4.277,0.43,6.031,1.285c1.75,0.855,3.082,2.008,4.004,3.465c1.32,2.047,1.98,6.742,1.98,14.086
		c0,4.145,0.086,6.73,0.262,7.75c0.172,1.012,0.566,2.031,1.191,3.059c0.621,1.027,0.934,1.887,0.934,2.578
		c0,1.543-1.559,2.316-4.668,2.316c-0.555,0-1.57-0.281-3.039-0.844c-1.461-0.57-2.383-0.855-2.766-0.855
		c-0.375,0-1.625,0.402-3.746,1.203c-2.125,0.797-3.996,1.195-5.617,1.195h-0.785c-2.52,0-4.691-0.828-6.516-2.477
		C303.595,387.124,302.681,384.866,302.681,381.999L302.681,381.999z M309.916,380.479v1.215c0,1.246,0.449,2.371,1.34,3.375
		c0.887,1,2.145,1.496,3.781,1.496h1.078c2.145,0,4.035-0.923,5.672-2.766c0.898-1.012,1.348-2.902,1.348-5.672l0.035-0.449v-0.863
		c0-1.734-0.711-2.602-2.137-2.602h-1.113l-1.801,0.148l-0.934,0.102c-2.125,0-3.863,0.59-5.223,1.777
		C310.599,377.433,309.916,378.847,309.916,380.479L309.916,380.479z M339.955,376.362v-1.766c0-2.258,0.363-4.523,1.09-6.793
		c0.73-2.273,1.785-4.254,3.172-5.941c2.883-3.457,6.816-5.188,11.805-5.188c2.535,0,4.055-0.309,4.566-0.934
		c0.781-0.973,1.168-3.039,1.168-6.199c0-0.945-0.102-1.918-0.301-2.922c-0.211-1.008-0.316-1.672-0.316-1.992
		c0-1.035,0.391-1.914,1.168-2.633c0.789-0.711,1.934-1.07,3.434-1.07h0.652c1.82,0,2.871,0.82,3.148,2.453
		c0.211,1.18,0.316,7.652,0.316,19.418l-0.066,4.152v5.781l0.066,3.184c0,0.531,0,1.063,0,1.586l0.035,0.766
		c0.02,0.512,0.031,1.43,0.031,2.758c0,1.324,0.191,2.617,0.574,3.867c0.383,1.262,0.574,2.145,0.574,2.656
		c0,0.504-0.289,0.996-0.867,1.484c-0.578,0.48-1.426,0.723-2.543,0.723s-2.262-0.156-3.43-0.465
		c-1.164-0.313-1.965-0.473-2.406-0.473c-0.438,0-1.629,0.34-3.578,1.016c-1.949,0.668-3.652,1-5.109,1h-0.754
		c-3.922,0-6.973-1.336-9.156-4.004C341.044,384.163,339.955,380.675,339.955,376.362L339.955,376.362z M346.603,373.698v1.598
		c0,3.57,0.707,6.324,2.125,8.27c1.418,1.934,3.168,2.902,5.242,2.902h0.316c2.422,0,4.301-0.84,5.637-2.523
		c1.344-1.688,2.012-4.098,2.012-7.23c0.047-0.512,0.07-0.883,0.07-1.117l0.102-2.18v-3.938l-0.07-1.082
		c-0.02-0.223-0.031-0.453-0.031-0.684c0-2.035-0.504-3.684-1.508-4.953c-1.004-1.266-2.66-1.898-4.961-1.898h-0.316l-0.348,0.03
		c-2.402,0-4.379,1.138-5.93,3.411C347.384,366.577,346.603,369.706,346.603,373.698L346.603,373.698z M378.337,375.081v-1.551
		c0-2.102,0.441-4.309,1.316-6.617c1.684-4.5,4.543-7.555,8.586-9.168c2.07-0.855,4.27-1.281,6.602-1.281h0.766
		c3.227,0,5.887,0.98,7.988,2.945c1.199,1.125,2.109,2.48,2.723,4.063c0.609,1.582,0.91,3.008,0.91,4.273
		c0,2.789-0.871,4.613-2.621,5.469c-1.199,0.578-3.941,1.121-8.223,1.633c-4.281,0.5-6.629,0.813-7.043,0.934
		c-2.008,0.5-3.016,1.402-3.016,2.699c0,2.234,1.027,4.102,3.082,5.602c1.5,1.109,3.648,1.664,6.438,1.664
		c1.063,0,2.785-0.336,5.164-1.012c2.367-0.668,3.672-1,3.902-1c1.199,0,1.801,0.543,1.801,1.629c0,1.359-1.285,2.703-3.859,4.027
		c-2.574,1.328-5.219,1.992-7.941,1.992h-1.52c-4.613,0-8.316-1.555-11.117-4.668c-1.242-1.387-2.211-3.148-2.902-5.278
		C378.685,379.3,378.337,377.183,378.337,375.081L378.337,375.081z M386.025,369.409v0.586c0,0.813,0.738,1.215,2.215,1.215h0.785
		l0.215-0.031l2.59-0.18l1.73-0.137l1.184-0.137c0.207-0.027,0.488-0.066,0.844-0.109c0.359-0.047,0.605-0.07,0.742-0.07
		c1.574,0,2.684-0.238,3.328-0.719c0.645-0.488,0.969-1.043,0.969-1.664v-1.453c0-1.664-0.613-3.035-1.836-4.117
		c-1.223-1.086-2.559-1.629-4.016-1.629h-0.898c-2.102,0-3.934,0.879-5.504,2.641C386.806,365.378,386.025,367.311,386.025,369.409
		L386.025,369.409z M415.544,384.811l0.199-1.179l0.352-1.148l0.313-1.168c0.324-1.434,0.484-3.246,0.484-5.438l0.102-9.684
		c0-4.043,0.012-6.121,0.035-6.234c0.211-0.922,1.004-1.383,2.383-1.383l6.582,0.688c0.734,0,1.895-0.25,3.477-0.742
		c1.574-0.496,3.301-0.742,5.176-0.742c1.867,0,4.102,0.738,6.703,2.215c1.043,0.578,1.656,0.867,1.836,0.867
		c0.855,0,2.32-0.566,4.398-1.699c2.098-1.133,4.094-1.699,5.984-1.699c4.289,0,7.211,1.938,8.766,5.816
		c0.801,2.008,1.262,4.742,1.383,8.199l0.066,2.913c0.047,2.216,0.098,3.793,0.156,4.739c0.055,0.945,0.301,2.09,0.742,3.441
		c0.438,1.352,0.656,2.453,0.656,3.309s-0.371,1.621-1.105,2.293c-0.742,0.684-1.676,1.023-2.801,1.023
		c-1.898,0-2.996-0.633-3.297-1.898c-0.066-0.258-0.113-0.848-0.145-1.777c-0.039-0.938-0.066-1.57-0.09-1.891l-0.25-2.387
		c-0.645-7.613-1.219-12.09-1.73-13.43c-0.969-2.703-2.766-4.051-5.391-4.051c-2.121,0-3.609,0.921-4.465,2.766
		c-1.086,2.332-1.633,6.66-1.633,12.984c0,0.921,0.063,1.801,0.184,2.633l0.199,1.203c0.258,1.34,0.383,2.141,0.383,2.395
		c0,1.223-0.469,2.258-1.406,3.105c-0.93,0.855-2.293,1.281-4.094,1.281s-2.926-0.297-3.375-0.898s-0.676-1.188-0.676-1.766
		s0.121-1.469,0.359-2.68c0.242-1.215,0.379-2.066,0.418-2.563s0.055-2.895,0.055-7.199c0-4.301-0.254-7.211-0.766-8.73
		c-0.711-2.125-2.117-3.184-4.219-3.184c-1.566,0-2.988,0.563-4.262,1.688c-1.27,1.133-2.129,2.332-2.586,3.598
		c-0.926,2.5-1.387,8.406-1.387,17.719c0,1.988-1.086,2.98-3.262,2.98C417.029,389.097,415.544,387.671,415.544,384.811
		L415.544,384.811z M478.318,376.397c-4.199-9.277-6.301-14.469-6.301-15.57c0-1.109,0.406-1.895,1.215-2.352
		c0.805-0.465,2.039-0.695,3.703-0.695c1.656,0,2.844,0.816,3.566,2.449c0.09,0.188,0.391,1.578,0.898,4.163
		c0.504,2.579,1.48,6.028,2.938,10.341c1.453,4.32,2.57,6.48,3.352,6.48c0.188,0,0.516-0.301,0.98-0.903
		c1.145-1.522,2.395-4.319,3.746-8.39c1.348-4.074,2.129-7.691,2.34-10.855c0.09-1.359,0.25-2.238,0.484-2.633
		c0.621-1.035,1.691-1.555,3.215-1.555h0.902c2.098,0,3.148,0.816,3.148,2.453c0,0.996-0.41,2.523-1.227,4.578
		c-0.816,2.047-1.438,3.754-1.855,5.121c-3.805,12.777-6.582,20.949-8.336,24.512c-1.754,3.57-3.676,6.34-5.762,8.313
		c-2.09,1.973-4.223,2.961-6.391,2.961c-2.164,0-3.25-0.695-3.25-2.082c0-0.969,0.996-1.844,2.992-2.633
		c1.996-0.781,3.41-1.656,4.242-2.633c1.613-1.867,2.418-3.988,2.418-6.367c0-1.313-0.922-3.543-2.766-6.691
		C480.724,381.257,479.306,378.589,478.318,376.397L478.318,376.397z M478.318,376.397"/>
</g>
</svg>
